<svg xmlns="http://www.w3.org/2000/svg" width="34" height="34" viewBox="0 0 34 34">
    <g fill="none" fill-rule="evenodd" transform="translate(1 1)">
        <circle cx="16" cy="16" r="16" stroke="#FAFAFA"/>
        <path fill="#17D086" fill-rule="nonzero" d="M22.448 16.968c-.45-.571-1.129-.963-2.037-1.176 1.157-.579 1.665-1.56 1.525-2.946-.046-.503-.188-.938-.425-1.307a2.646 2.646 0 0 0-.96-.89 5.35 5.35 0 0 0-1.316-.515 10.57 10.57 0 0 0-1.63-.257V7H15.81v2.798c-.31 0-.784.007-1.42.022V7h-1.793v2.877c-.256.008-.633.012-1.13.012L9 9.877v1.873h1.292c.59 0 .936.259 1.037.777v3.277c.077 0 .14.004.186.011h-.186v4.59c-.062.388-.287.583-.676.583H9.361l-.36 2.09h2.328c.147 0 .36.001.64.005.28.003.49.005.629.005V26h1.793v-2.877c.326.007.8.011 1.42.011V26h1.794v-2.912c.636-.03 1.201-.087 1.694-.17a7 7 0 0 0 1.415-.395c.45-.179.826-.402 1.129-.668.303-.266.553-.605.751-1.016.198-.411.324-.887.378-1.428.101-1.058-.073-1.872-.524-2.443zm-8.022-5.093l.46-.005.629-.012c.167-.004.392.006.675.029.283.023.522.053.716.091.194.038.408.1.64.188.233.088.42.194.56.32.139.126.257.286.354.48.097.194.146.416.146.668 0 .213-.035.407-.105.582-.07.175-.174.322-.314.44s-.283.22-.431.308a1.997 1.997 0 0 1-.565.211c-.229.054-.428.095-.6.126-.17.03-.383.051-.64.063-.256.011-.45.019-.582.023-.132.003-.312.003-.541 0a45.54 45.54 0 0 0-.402-.006v-3.506zm4.896 7.776a1.618 1.618 0 0 1-.285.457c-.117.13-.27.244-.46.342-.19.1-.375.18-.553.24a4.523 4.523 0 0 1-.646.16 8.645 8.645 0 0 1-1.345.143 15.582 15.582 0 0 1-1.176.011 38.31 38.31 0 0 0-.431-.005v-3.86c.062 0 .246-.004.553-.011a12.675 12.675 0 0 1 1.555.023c.34.022.628.057.861.102.233.046.487.116.763.212.275.095.499.21.67.348.17.137.314.312.43.525.117.213.175.457.175.73 0 .214-.037.408-.11.583z"/>
    </g>
</svg>
