<svg xmlns="http://www.w3.org/2000/svg" width="34" height="34" viewBox="0 0 34 34">
    <g fill="none" fill-rule="evenodd" transform="translate(1 1)">
        <circle cx="16" cy="16" r="16" stroke="#FAFAFA"/>
        <path fill="#17D086" fill-rule="nonzero" d="M25 10.709a7.444 7.444 0 0 1-2.12.574 3.671 3.671 0 0 0 1.623-2.016 7.5 7.5 0 0 1-2.347.885A3.703 3.703 0 0 0 19.461 9c-2.039 0-3.692 1.633-3.692 3.647 0 .285.032.564.095.831a10.526 10.526 0 0 1-7.61-3.811 3.587 3.587 0 0 0-.5 1.833c0 1.266.653 2.383 1.643 3.036a3.727 3.727 0 0 1-1.673-.458v.046c0 1.766 1.274 3.241 2.962 3.577-.31.082-.636.127-.973.127-.238 0-.47-.023-.695-.067a3.69 3.69 0 0 0 3.448 2.533 7.466 7.466 0 0 1-4.585 1.56c-.298 0-.592-.019-.881-.05a10.53 10.53 0 0 0 5.66 1.64c6.793 0 10.505-5.558 10.505-10.378l-.012-.472A7.325 7.325 0 0 0 25 10.709z"/>
    </g>
</svg>
