<svg xmlns="http://www.w3.org/2000/svg" width="38" height="38" viewBox="0 0 38 38">
    <g fill="none" fill-rule="evenodd" transform="translate(1 1)">
        <path fill="#FFF" fill-rule="nonzero" d="M22.3 9.004L20.02 9c-2.56 0-4.216 1.698-4.216 4.326v1.995h-2.292a.358.358 0 0 0-.358.358v2.89c0 .198.16.359.358.359h2.292v7.292c0 .198.16.358.359.358h2.99c.198 0 .358-.16.358-.358v-7.292h2.68c.198 0 .359-.16.359-.359v-2.89a.359.359 0 0 0-.358-.358h-2.68V13.63c0-.813.193-1.225 1.252-1.225l1.535-.001c.198 0 .359-.16.359-.358V9.362a.359.359 0 0 0-.358-.358z"/>
        <circle cx="18" cy="18" r="18" stroke="#FFF" stroke-width=".7"/>
    </g>
</svg>
