<svg xmlns="http://www.w3.org/2000/svg" width="34" height="34" viewBox="0 0 34 34">
    <g fill="none" fill-rule="evenodd" transform="translate(1 1)">
        <circle cx="16" cy="16" r="16" stroke="#FAFAFA"/>
        <path fill="#17D086" fill-rule="nonzero" d="M20.623 7.004L18.225 7c-2.695 0-4.436 1.835-4.436 4.676v2.156h-2.412a.382.382 0 0 0-.377.387v3.124c0 .214.169.388.377.388h2.412v7.882c0 .214.169.387.377.387h3.146a.382.382 0 0 0 .378-.387V17.73h2.82a.382.382 0 0 0 .376-.388l.002-3.124a.393.393 0 0 0-.11-.274.372.372 0 0 0-.268-.113h-2.82v-1.828c0-.878.203-1.324 1.317-1.324h1.616a.382.382 0 0 0 .377-.388v-2.9a.383.383 0 0 0-.377-.388z"/>
    </g>
</svg>
