<svg xmlns="http://www.w3.org/2000/svg" width="34" height="34" viewBox="0 0 34 34">
    <g fill="none" fill-rule="evenodd" transform="translate(1 1)">
        <circle cx="16" cy="16" r="16" stroke="#FAFAFA"/>
        <path fill="#17D086" fill-rule="nonzero" d="M24.551 16.207a1.55 1.55 0 0 0-2.046-.782l-.745.334-1.91-4.27.745-.333A1.549 1.549 0 0 0 19.33 8.33l-.744.333-.334-.746c-.35-.78-1.265-1.13-2.046-.78a1.548 1.548 0 0 0-.781 2.045l.334.746-4.27 1.91-.333-.746a1.549 1.549 0 0 0-2.827 1.264l.332.745-.744.334A1.548 1.548 0 1 0 9.18 16.26l.746-.334 1.909 4.27-.746.333a1.549 1.549 0 0 0 1.265 2.829l.745-.334.333.745a1.548 1.548 0 1 0 2.827-1.264l-.333-.746 4.27-1.909.333.743a1.547 1.547 0 1 0 2.827-1.262l-.333-.745.745-.334a1.547 1.547 0 0 0 .782-2.046zm-9.888 2.726l-1.91-4.27 4.27-1.91 1.91 4.27-4.27 1.91z"/>
    </g>
</svg>
