<svg xmlns="http://www.w3.org/2000/svg" width="520" height="364" viewBox="0 0 520 364">
    <g fill="none" fill-rule="evenodd">
        <g>
            <path stroke="#1A85EF" stroke-linecap="round" stroke-width="2" d="M6 358c97.202 0 176-78.798 176-176S103.202 6 6 6"/>
            <circle cx="6" cy="6" r="6" fill="#1A85EF"/>
            <circle cx="6" cy="358" r="6" fill="#1A85EF"/>
        </g>
        <g transform="translate(111 19)">
            <path stroke="#17D086" stroke-dasharray="3" stroke-linecap="square" d="M13 30.5h120.5"/>
            <circle cx="7.5" cy="30.5" r="7.5" fill="#FFF" stroke="#17D086" stroke-width="2"/>
            <circle cx="168" cy="30" r="30" fill="#FFF" stroke="#17D086" stroke-dasharray="3"/>
            <circle cx="168" cy="30" r="26" fill="#17D086"/>
            <g fill="#FFF" fill-rule="nonzero">
                <path d="M177.433 34.333l-2.553 3.668-1.801-1.479a.456.456 0 1 0-.579.705l2.183 1.792a.455.455 0 0 0 .664-.091l2.835-4.073a.456.456 0 0 0-.75-.522z"/>
                <path d="M175.07 30.912c-3.27 0-5.93 2.66-5.93 5.93 0 3.27 2.66 5.93 5.93 5.93 3.27 0 5.93-2.66 5.93-5.93 0-3.27-2.66-5.93-5.93-5.93zm0 10.948a5.023 5.023 0 0 1-5.017-5.018 5.023 5.023 0 0 1 5.017-5.017 5.023 5.023 0 0 1 5.018 5.017 5.023 5.023 0 0 1-5.018 5.018z"/>
                <path d="M167.316 36.842a.456.456 0 1 1 0-.912h.52a7.31 7.31 0 0 1 4.719-5.93h-5.24a.456.456 0 1 1 0-.912h8.211c.252 0 .456.204.456.456 0 .022-.01.04-.012.061a7.262 7.262 0 0 1 3.662 1.549v-8.372a5.56 5.56 0 0 0-5.554-5.554h-13.524A5.56 5.56 0 0 0 155 22.782v13.524a5.56 5.56 0 0 0 5.554 5.554h9.23a7.264 7.264 0 0 1-2.012-5.018h-.456zm0-14.14h8.21a.456.456 0 1 1 0 .912h-8.21a.456.456 0 1 1 0-.912zm-2.88 11.7l-3.127 3.648a.456.456 0 0 1-.62.069l-2.085-1.564a.456.456 0 1 1 .547-.73l1.743 1.308 2.85-3.324a.456.456 0 1 1 .693.593zm0-6.842l-3.127 3.649a.456.456 0 0 1-.62.068l-2.085-1.564a.456.456 0 1 1 .547-.73l1.743 1.308 2.85-3.324a.456.456 0 1 1 .693.593zm0-6.386l-3.127 3.649a.456.456 0 0 1-.62.068l-2.085-1.564a.456.456 0 1 1 .547-.73l1.743 1.308 2.85-3.324a.456.456 0 1 1 .693.593z"/>
            </g>
        </g>
        <g transform="translate(175 152)">
            <path stroke="#17D086" stroke-dasharray="3" stroke-linecap="square" d="M13 30.5h120.5"/>
            <circle cx="7.5" cy="30.5" r="7.5" fill="#FFF" stroke="#17D086" stroke-width="2"/>
            <circle cx="167" cy="30" r="30" fill="#FFF" stroke="#17D086" stroke-dasharray="3"/>
            <circle cx="167" cy="30" r="26" fill="#17D086"/>
            <g fill="#FFF" fill-rule="nonzero">
                <path d="M159.773 21.35l11.555-3.17-.612-1.243a1.624 1.624 0 0 0-2.181-.739l-10.344 5.152h1.582zM174.914 18.272c-.143 0-.286.02-.43.059l-2.714.746-8.29 2.273h13.51l-.507-1.87a1.626 1.626 0 0 0-1.569-1.208zM178.687 22.495H154.63c-.514 0-.973.239-1.272.615a1.64 1.64 0 0 0-.358 1.02v18.223c0 .903.73 1.636 1.627 1.636h24.056c.899 0 1.628-.733 1.628-1.636V37.79h-9.657a2.775 2.775 0 0 1-2.767-2.78v-3.637c0-.753.3-1.436.785-1.937a2.734 2.734 0 0 1 1.979-.84h9.66V24.13a1.627 1.627 0 0 0-1.624-1.635z"/>
                <path d="M181.453 30.159a1.624 1.624 0 0 0-1.097-.428h-9.702c-.898 0-1.628.732-1.628 1.635v3.641c0 .902.73 1.635 1.628 1.635h9.702c.186 0 .362-.033.528-.088a1.633 1.633 0 0 0 1.1-1.547v-3.641c0-.478-.205-.91-.53-1.207zm-7.401 3.353a.816.816 0 0 1-.814.818h-.54a.816.816 0 0 1-.814-.818v-.543c0-.262.12-.494.313-.641a.82.82 0 0 1 .5-.177h.541c.45 0 .814.366.814.818v.543z"/>
            </g>
        </g>
        <g transform="translate(111 288)">
            <path stroke="#17D086" stroke-dasharray="3" stroke-linecap="square" d="M13 30.5h121.5"/>
            <circle cx="7.5" cy="30.5" r="7.5" fill="#FFF" stroke="#17D086" stroke-width="2"/>
            <circle cx="168" cy="30" r="30" fill="#FFF" stroke="#17D086" stroke-dasharray="3"/>
            <circle cx="168" cy="30" r="26" fill="#17D086"/>
            <text fill="#FFF" font-family="Roboto-Regular, Roboto" font-size="32">
                <tspan x="158" y="41">C</tspan>
            </text>
        </g>
        <text fill="#1A85EF" font-family="ArialRoundedMTBold, Arial Rounded MT Bold" font-size="38">
            <tspan x="8" y="196">ccore</tspan>
        </text>
        <text fill="#49586C" font-family="Roboto-Regular, Roboto" font-size="24">
            <tspan x="321" y="55">Ccore Exchange</tspan>
        </text>
        <text fill="#49586C" font-family="Roboto-Regular, Roboto" font-size="24">
            <tspan x="385" y="190">Ccore Wallet</tspan>
        </text>
        <text fill="#49586C" font-family="Roboto-Regular, Roboto" font-size="24">
            <tspan x="321" y="326">Ccore Pay</tspan>
        </text>
    </g>
</svg>
