<svg xmlns="http://www.w3.org/2000/svg" width="34" height="34" viewBox="0 0 34 34">
    <g fill="none" fill-rule="evenodd" transform="translate(1 1)">
        <circle cx="16" cy="16" r="16" stroke="#FAFAFA"/>
        <g fill="#17D086" fill-rule="nonzero">
            <path d="M21.977 12.913l-1.05.63-1.05.63c-.35.21-.701.419-1.05.632l-2.092 1.27c-.35.212-.697.426-1.045.64l-1.043.64c-.347.214-.696.427-1.041.643l-1.04.646c-.346.216-.693.43-1.037.649l-1.036.651-.743.472 1.883 3.22c.23.39.786.485 1.148.194l1.37-1.106-.65-.312-.245-.072c-.016-.005-.01-.02.01-.04l-.041-.02-.022-.01a.531.531 0 0 1-.144-.877c.487-.451.977-.9 1.462-1.353l1.457-1.357 1.452-1.363.725-.681.723-.684 1.445-1.368 1.44-1.373.487-.464-.273.163z"/>
            <path d="M24.985 9.032c-.154.045-.329.12-.525.234L6.332 17.99a.576.576 0 0 0 .104 1.08l2.378.615 1.123-.665 1.056-.63c.352-.21.702-.423 1.053-.635l1.051-.637c.351-.21.7-.426 1.05-.64l1.048-.642c.35-.214.699-.428 1.046-.644l2.09-1.296c.348-.215.694-.435 1.041-.652l1.04-.653 1.042-.654c.347-.217.692-.438 1.038-.657l2.075-1.317a.395.395 0 0 1 .543.118c.1.155.076.353-.047.48l-.002.001c-.469.484-.94.965-1.407 1.45l-1.402 1.456-1.401 1.456-1.396 1.461-.698.731-.696.733-1.39 1.467-1.384 1.472c-.276.293-.55.587-.825.882l1.121.518 5.939 1.787a.584.584 0 0 0 .732-.401L25.97 9.999a.792.792 0 0 0-.986-.967z"/>
        </g>
    </g>
</svg>
